<svg width="35" height="35" viewBox="0 0 35 35" fill="none" xmlns="http://www.w3.org/2000/svg">
<path d="M23.3331 18.9574C22.6539 19.863 21.7732 20.5981 20.7607 21.1043C19.7482 21.6105 18.6317 21.8741 17.4997 21.8741C16.3677 21.8741 15.2513 21.6105 14.2388 21.1043C13.2263 20.5981 12.3456 19.863 11.6664 18.9574C11.0948 19.728 10.3755 20.377 9.55041 20.8666C8.72535 21.3563 7.81106 21.6768 6.86085 21.8094C5.91065 21.942 4.94355 21.8841 4.01595 21.6391C3.08836 21.3941 2.21883 20.9668 1.45807 20.3822V27.7074C1.46038 29.6406 2.22936 31.4939 3.59631 32.8609C4.96326 34.2278 6.81658 34.9968 8.74974 34.9991H26.2497C28.1829 34.9968 30.0362 34.2278 31.4032 32.8609C32.7701 31.4939 33.5391 29.6406 33.5414 27.7074V20.3779C32.7809 20.9627 31.9116 21.3902 30.9842 21.6356C30.0567 21.8809 29.0897 21.9392 28.1396 21.807C27.1894 21.6748 26.275 21.3547 25.4498 20.8655C24.6246 20.3763 23.905 19.7276 23.3331 18.9574V18.9574Z" fill="#424242"/>
<path d="M31.6456 4.56666C31.3633 3.26742 30.643 2.1047 29.6054 1.27339C28.5678 0.442086 27.2759 -0.00727917 25.9464 0.000621222H24.7914V4.37562C24.7914 4.7624 24.6378 5.13333 24.3643 5.40682C24.0908 5.68031 23.7198 5.83395 23.3331 5.83395C22.9463 5.83395 22.5754 5.68031 22.3019 5.40682C22.0284 5.13333 21.8747 4.7624 21.8747 4.37562V0.000621222H13.1247V4.37562C13.1247 4.7624 12.9711 5.13333 12.6976 5.40682C12.4241 5.68031 12.0532 5.83395 11.6664 5.83395C11.2796 5.83395 10.9087 5.68031 10.6352 5.40682C10.3617 5.13333 10.2081 4.7624 10.2081 4.37562V0.000621222H9.05307C7.72334 -0.00720783 6.43135 0.442365 5.39371 1.27396C4.35607 2.10556 3.63589 3.26861 3.3539 4.56812L1.49015 12.9798L1.45807 14.6131C1.45998 15.1877 1.57504 15.7562 1.79668 16.2863C2.01831 16.8163 2.34218 17.2975 2.74979 17.7024C3.573 18.5202 4.68733 18.9774 5.84765 18.9735C6.42219 18.9716 6.99072 18.8566 7.52078 18.6349C8.05085 18.4133 8.53207 18.0894 8.93697 17.6818C9.34188 17.2742 9.66253 16.7908 9.88062 16.2593C10.0987 15.7278 10.21 15.1585 10.2081 14.584C10.2081 14.1972 10.3617 13.8262 10.6352 13.5528C10.9087 13.2793 11.2796 13.1256 11.6664 13.1256C12.0532 13.1256 12.4241 13.2793 12.6976 13.5528C12.9711 13.8262 13.1247 14.1972 13.1247 14.584C13.1247 15.7443 13.5857 16.8571 14.4061 17.6775C15.2266 18.498 16.3394 18.959 17.4997 18.959C18.6601 18.959 19.7729 18.498 20.5933 17.6775C21.4138 16.8571 21.8747 15.7443 21.8747 14.584C21.8747 14.1972 22.0284 13.8262 22.3019 13.5528C22.5754 13.2793 22.9463 13.1256 23.3331 13.1256C23.7198 13.1256 24.0908 13.2793 24.3643 13.5528C24.6378 13.8262 24.7914 14.1972 24.7914 14.584C24.7914 15.7443 25.2523 16.8571 26.0728 17.6775C26.8933 18.498 28.0061 18.959 29.1664 18.959C30.3267 18.959 31.4395 18.498 32.26 17.6775C33.0805 16.8571 33.5414 15.7443 33.5414 14.584V13.2817L31.6456 4.56666Z" fill="#424242"/>
</svg>
