<svg width="35" height="35" viewBox="0 0 35 35" fill="none" xmlns="http://www.w3.org/2000/svg">
<g clip-path="url(#clip0_125_49)">
<path d="M25.5208 2.79494C23.8787 2.82049 22.2723 3.2789 20.864 4.12388C19.4557 4.96887 18.2953 6.1705 17.5 7.60744C16.7047 6.1705 15.5443 4.96887 14.136 4.12388C12.7276 3.2789 11.1213 2.82049 9.47915 2.79494C6.86135 2.90868 4.39497 4.05386 2.61883 5.98028C0.842692 7.90671 -0.098823 10.4578 -2.01352e-05 13.0762C-2.01352e-05 19.7072 6.97956 26.9493 12.8333 31.8595C14.1403 32.9578 15.7928 33.56 17.5 33.56C19.2072 33.56 20.8597 32.9578 22.1666 31.8595C28.0204 26.9493 35 19.7072 35 13.0762C35.0988 10.4578 34.1573 7.90671 32.3811 5.98028C30.605 4.05386 28.1386 2.90868 25.5208 2.79494Z" fill="#424242"/>
</g>
<defs>
<clipPath id="clip0_125_49">
<rect width="35" height="35" fill="white"/>
</clipPath>
</defs>
</svg>
