<svg width="35" height="35" viewBox="0 0 35 35" fill="none" xmlns="http://www.w3.org/2000/svg">
<g clip-path="url(#clip0_125_29)">
<path d="M2.91667 18.9582V17.4999C2.91667 16.3396 3.3776 15.2268 4.19807 14.4063C5.01855 13.5858 6.13134 13.1249 7.29167 13.1249H16.0417V9.93991C15.1916 9.63937 14.4551 9.08353 13.933 8.34843C13.411 7.61333 13.1287 6.73487 13.125 5.83324C13.125 3.69532 15.769 1.37949 16.5798 0.720324L17.5 -0.0278015L18.4202 0.720324C19.231 1.37949 21.875 3.69532 21.875 5.83324C21.8713 6.73487 21.589 7.61333 21.067 8.34843C20.5449 9.08353 19.8084 9.63937 18.9583 9.93991V13.1249H27.7083C28.8687 13.1249 29.9815 13.5858 30.8019 14.4063C31.6224 15.2268 32.0833 16.3396 32.0833 17.4999V18.9582C32.0833 19.4585 31.0888 20.4166 29.5313 20.4166C27.9431 20.4166 26.9792 19.4045 26.9792 18.9582H24.0625C24.0625 19.4585 23.0679 20.4166 21.5104 20.4166C19.9223 20.4166 18.9583 19.4045 18.9583 18.9582H16.0417C16.0417 19.4585 15.0471 20.4166 13.4896 20.4166C11.9015 20.4166 10.9375 19.4045 10.9375 18.9582H8.02083C8.02083 19.4585 7.02625 20.4166 5.46875 20.4166C3.88063 20.4166 2.91667 19.4045 2.91667 18.9582ZM0 32.0832V34.9999H35V32.0832H0ZM32.0833 22.7864C31.2796 23.1432 30.4106 23.3294 29.5313 23.3332C28.0627 23.3444 26.6392 22.8267 25.5208 21.8749C24.3959 22.8126 22.9788 23.328 21.5144 23.332C20.0499 23.336 18.63 22.8283 17.5 21.8968C16.37 22.8283 14.9501 23.336 13.4856 23.332C12.0212 23.328 10.6041 22.8126 9.47917 21.8749C8.36079 22.8267 6.93728 23.3444 5.46875 23.3332C4.58939 23.3294 3.72038 23.1432 2.91667 22.7864V29.1666H32.0833V22.7864Z" fill="#424242"/>
</g>
<defs>
<clipPath id="clip0_125_29">
<rect width="35" height="35" fill="white"/>
</clipPath>
</defs>
</svg>
