<svg width="35" height="35" viewBox="0 0 35 35" fill="none" xmlns="http://www.w3.org/2000/svg">
<path d="M17.5 21.8526C15.0838 21.8526 13.125 23.8114 13.125 26.2276V34.9776H21.875V26.2276C21.875 23.8114 19.9162 21.8526 17.5 21.8526Z" fill="#424242"/>
<path d="M24.7917 26.2282V34.9782H30.625C33.0412 34.9782 35 33.0194 35 30.6032V17.3018C35.0003 16.5441 34.7059 15.8161 34.1789 15.2718L21.7861 1.87402C19.5994 -0.4919 15.9088 -0.637164 13.5429 1.54952C13.4305 1.65342 13.3222 1.76163 13.2184 1.87402L0.847315 15.2674C0.304404 15.814 -0.000204975 16.5532 1.03484e-07 17.3236V30.6032C1.03484e-07 33.0194 1.95877 34.9782 4.375 34.9782H10.2083V26.2282C10.2356 22.2516 13.4462 19.0043 17.3227 18.9107C21.3288 18.8141 24.7611 22.1167 24.7917 26.2282Z" fill="#424242"/>
<path d="M17.5 21.8526C15.0838 21.8526 13.125 23.8114 13.125 26.2276V34.9776H21.875V26.2276C21.875 23.8114 19.9162 21.8526 17.5 21.8526Z" fill="#424242"/>
</svg>
