<svg width="35" height="35" viewBox="0 0 35 35" fill="none" xmlns="http://www.w3.org/2000/svg">
<path d="M27.7082 15.3125H14.8851L18.4419 11.7556C18.8523 11.3454 19.0829 10.789 19.0831 10.2088C19.0832 9.62863 18.8528 9.07213 18.4427 8.66176C18.0325 8.25139 17.4761 8.02077 16.8959 8.02064C16.3157 8.0205 15.7592 8.25086 15.3488 8.66103L10.1192 13.8906C9.16368 14.8488 8.62708 16.1468 8.62708 17.5C8.62708 18.8532 9.16368 20.1512 10.1192 21.1094L15.3488 26.3389C15.7592 26.7491 16.3157 26.9795 16.8959 26.9793C17.4761 26.9792 18.0325 26.7486 18.4427 26.3382C18.8528 25.9278 19.0832 25.3714 19.0831 24.7911C19.0829 24.2109 18.8523 23.6545 18.4419 23.2444L14.8851 19.6875H27.7082C28.2883 19.6875 28.8447 19.457 29.255 19.0468C29.6652 18.6365 29.8957 18.0801 29.8957 17.5C29.8957 16.9198 29.6652 16.3634 29.255 15.9532C28.8447 15.543 28.2883 15.3125 27.7082 15.3125Z" fill="#424242"/>
</svg>
