<svg width="35" height="35" viewBox="0 0 35 35" fill="none" xmlns="http://www.w3.org/2000/svg">
<path d="M14.0203 16.9354C15.6311 16.9354 16.937 15.6296 16.937 14.0187C16.937 12.4079 15.6311 11.102 14.0203 11.102C12.4094 11.102 11.1036 12.4079 11.1036 14.0187C11.1036 15.6296 12.4094 16.9354 14.0203 16.9354Z" fill="#424242"/>
<path d="M29.1667 5.86511C30.7775 5.86511 32.0834 4.55926 32.0834 2.94842C32.0834 1.33758 30.7775 0.0317307 29.1667 0.0317307C27.5558 0.0317307 26.25 1.33758 26.25 2.94842C26.25 4.55926 27.5558 5.86511 29.1667 5.86511Z" fill="#424242"/>
<path d="M17.5 26.2825C19.1109 26.2825 20.4167 24.9766 20.4167 23.3658C20.4167 21.7549 19.1109 20.4491 17.5 20.4491C15.8892 20.4491 14.5833 21.7549 14.5833 23.3658C14.5833 24.9766 15.8892 26.2825 17.5 26.2825Z" fill="#424242"/>
<path d="M34.9154 15.8273C34.8167 14.7826 33.9899 13.9552 32.9453 13.8556C26.6953 13.2505 21.7494 8.30341 21.1459 2.05331C21.0466 1.00967 20.2207 0.183203 19.1771 0.083125C18.6244 0.0320605 18.0673 0 17.5 0C7.83501 0 0 7.83501 0 17.5C0 27.165 7.83501 35 17.5 35C27.165 35 35 27.165 35 17.5C35 16.9342 34.9694 16.3771 34.9154 15.8273ZM17.5 30.625C10.2512 30.7418 4.28032 24.9602 4.16356 17.7114C4.04674 10.4627 9.82837 4.49176 17.0771 4.375C18.5043 11.1792 23.8207 16.495 30.625 17.9214C30.3907 25.0021 24.5845 30.6218 17.5 30.625Z" fill="#424242"/>
</svg>
