<svg width="35" height="35" viewBox="0 0 35 35" fill="none" xmlns="http://www.w3.org/2000/svg">
<path fill-rule="evenodd" clip-rule="evenodd" d="M17.5 0C27.1585 0 35 7.84146 35 17.5C35 27.1585 27.1585 35 17.5 35C7.84146 35 0 27.1585 0 17.5C0 7.84146 7.84146 0 17.5 0ZM17.5 2.91667C25.5485 2.91667 32.0833 9.45146 32.0833 17.5C32.0833 25.5485 25.5485 32.0833 17.5 32.0833C9.45146 32.0833 2.91667 25.5485 2.91667 17.5C2.91667 9.45146 9.45146 2.91667 17.5 2.91667ZM13.8688 29.7063C13.9125 30.0985 14.2712 30.3902 14.6781 30.345L17.5758 30.0052C17.9667 29.9571 18.2613 29.6042 18.2146 29.1973C18.165 28.7904 17.8019 28.5104 17.4052 28.5571L14.5075 28.8969C14.1138 28.9406 13.8235 29.3008 13.8688 29.7063ZM24.5204 26.654C24.745 26.654 24.9667 26.759 25.111 26.9588C25.3488 27.2927 25.2627 27.7433 24.9433 27.9752L22.5735 29.6756C22.2396 29.9119 21.7846 29.8302 21.5556 29.5079C21.3208 29.1754 21.3996 28.7204 21.7233 28.49L22.5881 27.8702L23.2269 27.4108L24.0931 26.7896C24.2215 26.6992 24.3688 26.654 24.516 26.654H24.5204V26.654ZM11.2335 27.4867C11.5063 27.771 11.9685 27.7871 12.2646 27.5042L14.3617 25.4756C14.6446 25.2 14.6635 24.7421 14.3792 24.446C14.0933 24.1529 13.6354 24.15 13.3481 24.4285L11.251 26.4556C10.9638 26.7298 10.9521 27.1921 11.2335 27.4867V27.4867ZM17.551 25.254C17.4052 25.62 17.5817 26.0473 17.9623 26.2004L20.6748 27.2708C21.0423 27.4138 21.4696 27.2417 21.6198 26.861C21.7685 26.479 21.5819 26.0619 21.21 25.9146L18.4975 24.8427C18.1285 24.6954 17.7027 24.8762 17.551 25.254ZM24.0698 21.875C24.1996 21.875 24.3294 21.9115 24.4475 21.9844L25.3517 22.5473L26.0196 22.9615L26.9252 23.5229C27.265 23.7344 27.3744 24.1792 27.1585 24.5277C26.9427 24.8763 26.4921 24.9696 26.1567 24.7625L23.679 23.224C23.3319 23.0067 23.2327 22.5546 23.4427 22.2206C23.5827 21.996 23.8219 21.875 24.0654 21.875H24.0698V21.875ZM10.2113 23.3231C10.6079 23.3246 10.9346 23.6425 10.9375 24.0508C10.9375 24.4606 10.6065 24.7785 10.2113 24.7815L7.29458 24.7917C6.88625 24.7917 6.5625 24.4606 6.5625 24.0654C6.56396 23.6585 6.89208 23.3333 7.28875 23.3333L8.35479 23.3304L9.14083 23.3275L10.2054 23.3231H10.2113V23.3231ZM17.5 11.6667C20.72 11.6667 23.3333 14.28 23.3333 17.5C23.3333 20.72 20.72 23.3333 17.5 23.3333C14.28 23.3333 11.6667 20.72 11.6667 17.5C11.6667 14.28 14.28 11.6667 17.5 11.6667ZM30.52 19.2515C30.3158 18.9131 29.8681 18.7965 29.5167 19.0079L27.0244 20.5231C26.689 20.7288 26.5679 21.1721 26.7808 21.5235C26.9952 21.8735 27.4415 21.9756 27.7827 21.7685L30.275 20.2533C30.6148 20.0492 30.7285 19.6 30.52 19.2515ZM10.516 17.64C10.1981 17.4052 9.74021 17.4708 9.49813 17.8004L7.78021 20.1585C7.55125 20.4779 7.60958 20.9344 7.94063 21.1765C8.27313 21.4156 8.72521 21.3398 8.96 21.016L10.6779 18.6579C10.9127 18.3385 10.8442 17.8806 10.516 17.64ZM17.5 14.5833C19.11 14.5833 20.4167 15.89 20.4167 17.5C20.4167 19.11 19.11 20.4167 17.5 20.4167C15.89 20.4167 14.5833 19.11 14.5833 17.5C14.5833 15.89 15.89 14.5833 17.5 14.5833ZM28.175 18.2525C28.4944 18.0206 28.5717 17.5642 28.331 17.2331L26.6058 14.8808C26.371 14.5644 25.919 14.4827 25.5879 14.7248C25.2583 14.9683 25.1942 15.4219 25.4304 15.7442L27.1556 18.0965C27.389 18.4173 27.8454 18.4917 28.175 18.2525ZM4.74542 14.1342C4.40125 14.3267 4.27 14.77 4.46833 15.1287L5.8975 17.6706C6.09292 18.0133 6.53188 18.149 6.88917 17.9477C7.24646 17.7465 7.36458 17.3031 7.16917 16.9546L5.73854 14.4127C5.54604 14.0656 5.10125 13.9373 4.74542 14.1342ZM7.86771 10.2244C7.48125 10.3046 7.22313 10.6896 7.30771 11.0906L7.91875 13.9431C8.00333 14.3281 8.3825 14.5877 8.78354 14.5017C9.18458 14.4142 9.42813 14.0263 9.345 13.6354L8.73396 10.7844C8.65229 10.395 8.26583 10.1413 7.86771 10.2244V10.2244ZM30.1088 13.7273C30.2546 13.3598 30.0767 12.9325 29.696 12.7823L26.9806 11.7163C26.6131 11.5733 26.1873 11.7469 26.0371 12.1275C25.8883 12.5096 26.0765 12.9281 26.4483 13.074L29.1637 14.14C29.5327 14.2858 29.9585 14.105 30.1088 13.7273V13.7273ZM27.16 8.76021C26.9529 8.42333 26.5037 8.31104 26.1552 8.52542L23.6775 10.064C23.3435 10.274 23.2269 10.7173 23.4427 11.0673C23.66 11.4144 24.1077 11.5135 24.4475 11.3021L26.9252 9.76354C27.2635 9.55646 27.3729 9.10729 27.16 8.76021ZM13.4415 10.6721C13.6733 10.3542 13.6062 9.89625 13.2752 9.65562L10.9098 7.94792C10.589 7.72042 10.134 7.78167 9.89333 8.11417C9.65417 8.44667 9.73292 8.89875 10.0581 9.13208L12.4235 10.8383C12.7444 11.0717 13.2008 11.0017 13.4415 10.6721V10.6721ZM20.4167 9.47917C20.4196 9.08396 20.0973 8.75146 19.6875 8.75L16.7708 8.74708C16.3756 8.75 16.0431 9.065 16.0417 9.47625C16.0431 9.88604 16.3713 10.2054 16.7708 10.2054L19.6875 10.2083C20.0842 10.2098 20.4138 9.88604 20.4167 9.47917ZM23.9138 7.43458C24.0581 7.06708 23.8788 6.64125 23.4981 6.49104L20.7798 5.43229C20.4108 5.29229 19.9865 5.46583 19.8363 5.84792C19.689 6.23 19.8785 6.64708 20.2519 6.79292L22.9702 7.85021C23.3392 7.99604 23.7635 7.81375 23.9138 7.43458V7.43458ZM17.2594 5.05167C17.1194 4.68125 16.7008 4.48583 16.3173 4.63167L13.5931 5.67292C13.2256 5.81583 13.0273 6.23 13.1731 6.61354C13.3204 6.99562 13.7419 7.17792 14.1152 7.035L16.8394 5.99229C17.2098 5.85229 17.4023 5.43229 17.2594 5.05167Z" fill="#424242"/>
</svg>
